<svg width="415" height="227" viewBox="0 0 415 227" fill="none" xmlns="http://www.w3.org/2000/svg">
<mask id="mask0_35_22" style="mask-type:alpha" maskUnits="userSpaceOnUse" x="0" y="0" width="199" height="199">
<circle cx="99.5" cy="99.5" r="99.5" fill="#D9D9D9"/>
</mask>
<g mask="url(#mask0_35_22)">
<path d="M65.5 34.5848L73 59.5848C75.4 57.5848 81.6667 58.7515 84.5 59.5848C97.3 44.3848 109.833 53.2515 114.5 59.5848C116.9 56.7848 123.5 59.0848 126.5 60.5848C126.5 42.5848 132.833 35.7515 136 34.5848C154 43.7848 150.167 68.4182 146 79.5848C152.4 85.9848 152 98.9182 151 104.585L147.5 121.085C152.7 135.485 144 154.085 139 161.585C139.879 165.182 141.224 179.196 142 190.5C104.673 206.168 66.2272 197.028 52.5 190.5L57 158.085C45 146.485 49 129.585 52.5 122.585C51 120.252 47.8 113.385 47 104.585C46.2 95.7848 50.3333 84.2515 52.5 79.5848C42.1 47.5848 56.8333 36.2515 65.5 34.5848Z" fill="#9ED957"/>
<path d="M75 141.585C75 135.995 76.5 130.585 78.5 129.085C82.5 126.085 89.5 128.585 93.5 118.085C95.4901 112.861 106 112.085 110 118.085C114 124.085 118 124.585 123.5 127.585C129.831 131.038 129 139.085 129 141.585C129 147.085 125.5 164.585 102 164.585C81.5 164.585 75 149.585 75 141.585Z" fill="#FDFCF7"/>
<path d="M94.5 132.085L102.5 138.085M102.5 138.085L110.5 132.085M102.5 138.085V145.585M102.5 145.585C102.5 149.585 93.5 154.085 88 146.585M102.5 145.585C102.5 149.585 110.1 154.585 116.5 146.585" stroke="#2E4980" stroke-width="6" stroke-linecap="round"/>
<path d="M52.5001 78.0848C48.6667 70.2514 44.6 50.9847 59.0001 36.5848C63 32.5848 67 33.0848 68.0001 39.0848C69.3334 44.9181 72 55.3848 72 58.5848" stroke="#2E4980" stroke-width="9" stroke-linecap="round"/>
<path d="M50 111C50 99 60 92 66 92H132.5C138.9 92 149 97.5 149 111C149 121.8 140.5 129 136.5 129H121.5C119.5 129 115 127.5 112 121.5C109.6 116.7 104.667 115.5 102.5 115.5C99.6667 115.333 93.6 116.3 92 121.5C90.4 126.7 84.6667 128.5 82 129H66C60.5 129 50 123 50 111Z" fill="#9ED957" stroke="#2E4980" stroke-width="7" stroke-linecap="round"/>
<path d="M77 100.085L72 117.085" stroke="#2E4980" stroke-width="3" stroke-linecap="round"/>
<path d="M48 98.0848C45.5 90.5848 49.4 77.8848 63 75.0848C62.5 68.5848 68.5 55.5848 84.5 59.5848C92.5 48.5848 108 49.0848 114 59.5848C123 55.5848 137 65.0848 136.5 75.0848C147 76.0848 154.5 90.5848 151 100.085M51.5 188.5L59 160.585C53.5 154.751 42.5 137.4 52.5 123M146.5 123.5C150.833 129 154.6 142.585 139 160.585C140.833 174.251 142 176.5 143.5 188.5" stroke="#2E4980" stroke-width="9" stroke-linecap="round"/>
<rect x="37" y="95.0848" width="15" height="28" rx="6" fill="#2E4980"/>
<rect x="147" y="95.0848" width="15" height="28" rx="6" fill="#2E4980"/>
<path d="M146 79.0848C150.167 71.2515 154.7 51.7848 139.5 36.5848C136 33.0848 132.833 34.4181 131 39.0848C129.167 43.7515 127.4 55.5848 127 59.5848" stroke="#2E4980" stroke-width="9"/>
<circle cx="129.5" cy="109.585" r="6.5" fill="#2E4980"/>
<path d="M66.5 104.085L61 109.085L66.5 114.085" stroke="#2E4980" stroke-width="3" stroke-linecap="round"/>
<path d="M81 104.085L86 109.085L81 114.085" stroke="#2E4980" stroke-width="3" stroke-linecap="round"/>
</g>
<path d="M196.412 154.04V94.672H206.252L207.482 100.412C208.357 99.2093 209.395 98.116 210.598 97.132C211.801 96.0933 213.222 95.2733 214.862 94.672C216.557 94.016 218.525 93.688 220.766 93.688C224.647 93.688 228.064 94.6447 231.016 96.558C233.968 98.4713 236.291 101.068 237.986 104.348C239.735 107.573 240.61 111.263 240.61 115.418C240.61 119.573 239.735 123.29 237.986 126.57C236.237 129.795 233.886 132.337 230.934 134.196C227.982 136.055 224.62 136.984 220.848 136.984C217.787 136.984 215.135 136.437 212.894 135.344C210.707 134.196 208.903 132.638 207.482 130.67V154.04H196.412ZM218.224 127.308C220.411 127.308 222.324 126.816 223.964 125.832C225.659 124.848 226.971 123.454 227.9 121.65C228.829 119.846 229.294 117.769 229.294 115.418C229.294 113.067 228.829 110.99 227.9 109.186C226.971 107.327 225.659 105.906 223.964 104.922C222.324 103.883 220.411 103.364 218.224 103.364C216.092 103.364 214.179 103.883 212.484 104.922C210.844 105.906 209.532 107.3 208.548 109.104C207.619 110.908 207.154 112.985 207.154 115.336C207.154 117.687 207.619 119.791 208.548 121.65C209.532 123.454 210.844 124.848 212.484 125.832C214.179 126.816 216.092 127.308 218.224 127.308Z" fill="#2E4980"/>
<path d="M259.984 136.984C256.54 136.984 253.698 136.437 251.456 135.344C249.215 134.196 247.548 132.693 246.454 130.834C245.416 128.921 244.896 126.816 244.896 124.52C244.896 122.005 245.525 119.791 246.782 117.878C248.094 115.965 250.035 114.461 252.604 113.368C255.228 112.275 258.508 111.728 262.444 111.728H272.694C272.694 109.705 272.421 108.038 271.874 106.726C271.328 105.359 270.48 104.348 269.332 103.692C268.184 103.036 266.654 102.708 264.74 102.708C262.663 102.708 260.886 103.173 259.41 104.102C257.989 104.977 257.114 106.343 256.786 108.202H246.044C246.318 105.25 247.274 102.708 248.914 100.576C250.609 98.3893 252.823 96.6947 255.556 95.492C258.344 94.2893 261.433 93.688 264.822 93.688C268.704 93.688 272.066 94.344 274.908 95.656C277.751 96.968 279.938 98.854 281.468 101.314C282.999 103.774 283.764 106.808 283.764 110.416V136H274.416L273.186 129.686C272.585 130.779 271.874 131.763 271.054 132.638C270.234 133.513 269.278 134.278 268.184 134.934C267.091 135.59 265.861 136.082 264.494 136.41C263.128 136.793 261.624 136.984 259.984 136.984ZM262.608 128.456C264.03 128.456 265.287 128.21 266.38 127.718C267.528 127.171 268.512 126.461 269.332 125.586C270.152 124.657 270.781 123.618 271.218 122.47C271.71 121.267 272.038 119.983 272.202 118.616V118.534H263.756C262.062 118.534 260.668 118.753 259.574 119.19C258.536 119.573 257.77 120.147 257.278 120.912C256.786 121.677 256.54 122.552 256.54 123.536C256.54 124.629 256.786 125.531 257.278 126.242C257.77 126.953 258.481 127.499 259.41 127.882C260.34 128.265 261.406 128.456 262.608 128.456Z" fill="#2E4980"/>
<path d="M309.999 136.984C305.845 136.984 302.155 136.055 298.929 134.196C295.704 132.337 293.189 129.795 291.385 126.57C289.581 123.345 288.679 119.655 288.679 115.5C288.679 111.236 289.581 107.491 291.385 104.266C293.189 100.986 295.704 98.4167 298.929 96.558C302.155 94.6447 305.845 93.688 309.999 93.688C315.302 93.688 319.757 95.082 323.365 97.87C326.973 100.658 329.269 104.485 330.253 109.35H318.527C318.035 107.437 316.997 105.933 315.411 104.84C313.881 103.747 312.049 103.2 309.917 103.2C308.004 103.2 306.282 103.692 304.751 104.676C303.275 105.605 302.1 106.999 301.225 108.858C300.405 110.662 299.995 112.821 299.995 115.336C299.995 117.249 300.241 118.971 300.733 120.502C301.225 121.978 301.909 123.263 302.783 124.356C303.658 125.395 304.697 126.187 305.899 126.734C307.157 127.281 308.496 127.554 309.917 127.554C311.339 127.554 312.623 127.308 313.771 126.816C314.974 126.324 315.985 125.641 316.805 124.766C317.625 123.837 318.199 122.716 318.527 121.404H330.253C329.269 126.16 326.946 129.959 323.283 132.802C319.675 135.59 315.247 136.984 309.999 136.984Z" fill="#2E4980"/>
<path d="M349.64 136.984C346.196 136.984 343.353 136.437 341.112 135.344C338.871 134.196 337.203 132.693 336.11 130.834C335.071 128.921 334.552 126.816 334.552 124.52C334.552 122.005 335.181 119.791 336.438 117.878C337.75 115.965 339.691 114.461 342.26 113.368C344.884 112.275 348.164 111.728 352.1 111.728H362.35C362.35 109.705 362.077 108.038 361.53 106.726C360.983 105.359 360.136 104.348 358.988 103.692C357.84 103.036 356.309 102.708 354.396 102.708C352.319 102.708 350.542 103.173 349.066 104.102C347.645 104.977 346.77 106.343 346.442 108.202H335.7C335.973 105.25 336.93 102.708 338.57 100.576C340.265 98.3893 342.479 96.6947 345.212 95.492C348 94.2893 351.089 93.688 354.478 93.688C358.359 93.688 361.721 94.344 364.564 95.656C367.407 96.968 369.593 98.854 371.124 101.314C372.655 103.774 373.42 106.808 373.42 110.416V136H364.072L362.842 129.686C362.241 130.779 361.53 131.763 360.71 132.638C359.89 133.513 358.933 134.278 357.84 134.934C356.747 135.59 355.517 136.082 354.15 136.41C352.783 136.793 351.28 136.984 349.64 136.984ZM352.264 128.456C353.685 128.456 354.943 128.21 356.036 127.718C357.184 127.171 358.168 126.461 358.988 125.586C359.808 124.657 360.437 123.618 360.874 122.47C361.366 121.267 361.694 119.983 361.858 118.616V118.534H353.412C351.717 118.534 350.323 118.753 349.23 119.19C348.191 119.573 347.426 120.147 346.934 120.912C346.442 121.677 346.196 122.552 346.196 123.536C346.196 124.629 346.442 125.531 346.934 126.242C347.426 126.953 348.137 127.499 349.066 127.882C349.995 128.265 351.061 128.456 352.264 128.456Z" fill="#2E4980"/>
</svg>
